<?xml version="1.0" standalone="no"?>
<svg viewBox="0 0 200 200" xmlns="http://www.w3.org/2000/svg">
  <path fill="#F2F4F8" d="M23.9,-42.8C34.6,-35.2,49.4,-36.1,54.1,-30.4C58.8,-24.7,53.4,-12.4,49.3,-2.4C45.1,7.6,42.3,15.2,39.5,24.1C36.6,33.1,33.9,43.5,27.3,53.3C20.7,63.1,10.4,72.4,1.2,70.3C-7.9,68.1,-15.8,54.6,-22,44.6C-28.2,34.6,-32.6,28,-44.6,21.1C-56.5,14.3,-76,7.1,-84.3,-4.8C-92.5,-16.7,-89.5,-33.3,-79.8,-44C-70.1,-54.7,-53.5,-59.4,-39.1,-64.8C-24.7,-70.3,-12.3,-76.5,-2.9,-71.5C6.6,-66.5,13.2,-50.4,23.9,-42.8Z" transform="translate(100 100)" />
</svg>
