<?xml version="1.0" standalone="no"?>
<svg viewBox="0 0 200 200" xmlns="http://www.w3.org/2000/svg">
  <path fill="#F2F4F8" d="M44.9,-69.9C58.1,-70.1,68.8,-58,61.9,-44.3C55,-30.6,30.7,-15.3,28.8,-1.1C26.9,13.1,47.5,26.2,53.7,38.7C59.8,51.1,51.4,62.8,40.1,69.4C28.7,75.9,14.4,77.3,3.7,70.9C-7,64.5,-14,50.4,-27.5,45.1C-41,39.8,-61.2,43.4,-67.8,37.3C-74.4,31.3,-67.6,15.6,-55.9,6.8C-44.2,-2.1,-27.7,-4.3,-23.2,-14.1C-18.7,-23.9,-26.4,-41.5,-24.6,-47.8C-22.7,-54.2,-11.4,-49.3,2.2,-53.2C15.8,-57.1,31.7,-69.7,44.9,-69.9Z" transform="translate(100 100)" />
</svg>
